<svg xmlns="http://www.w3.org/2000/svg" viewBox="0 0 1000 600" width="100%" height="100%">
  <defs>
    <!-- Importing premium serif and sans-serif Google Fonts -->
    <style>
      @import url('https://fonts.googleapis.com/css2?family=Cinzel:wght@700&amp;family=Montserrat:wght@500;600&amp;display=swap');
      
      .bg-card {
        fill: #ffffff;
      }
      
      .bridge-deck {
        fill: #001c3d;
      }
      
      .pylon {
        fill: #001c3d;
        stroke: #ffffff;
        stroke-width: 5px;
        stroke-linejoin: round;
        stroke-linecap: round;
      }
      
      .cable {
        stroke: #c59b27;
        stroke-width: 1.5px;
        stroke-linecap: round;
        opacity: 0.95;
      }
      
      .main-title {
        font-family: 'Cinzel', 'Georgia', 'Times New Roman', serif;
        font-size: 44px;
        font-weight: 700;
        fill: #001c3d;
        text-anchor: middle;
        letter-spacing: 0.06em;
      }
      
      .group-title {
        font-family: 'Montserrat', 'Helvetica Neue', 'Arial', sans-serif;
        font-size: 26px;
        font-weight: 500;
        fill: #c59b27;
        text-anchor: middle;
        letter-spacing: 0.55em;
      }
      
      .tagline {
        font-family: 'Montserrat', 'Helvetica Neue', 'Arial', sans-serif;
        font-size: 15px;
        font-weight: 600;
        fill: #001c3d;
        text-anchor: middle;
        letter-spacing: 0.18em;
      }
      
      .bullet {
        font-size: 20px;
        fill: #c59b27;
        baseline-shift: 8%;
      }
    </style>
  </defs>

  <!-- Clean White Presentation Card Background -->
  <rect class="bg-card" width="100%" height="100%" rx="16" />

  <!-- 1. Cable-Stayed Bridge Gold Cables (Drawn behind pylons) -->
  <g>
    <!-- Left Pylon Cables (Outer-Left Fan) -->
    <line class="cable" x1="364" y1="155" x2="200" y2="276" />
    <line class="cable" x1="364" y1="170" x2="240" y2="269" />
    <line class="cable" x1="364" y1="185" x2="280" y2="264" />
    <line class="cable" x1="364" y1="200" x2="320" y2="259" />

    <!-- Left Pylon Cables (Inner-Right Fan to Center) -->
    <line class="cable" x1="378" y1="155" x2="410" y2="252" />
    <line class="cable" x1="378" y1="170" x2="445" y2="251" />
    <line class="cable" x1="378" y1="185" x2="480" y2="250" />

    <!-- Right Pylon Cables (Outer-Right Fan) -->
    <line class="cable" x1="636" y1="155" x2="800" y2="276" />
    <line class="cable" x1="636" y1="170" x2="760" y2="269" />
    <line class="cable" x1="636" y1="185" x2="720" y2="264" />
    <line class="cable" x1="636" y1="200" x2="680" y2="259" />

    <!-- Right Pylon Cables (Inner-Left Fan to Center) -->
    <line class="cable" x1="622" y1="155" x2="590" y2="252" />
    <line class="cable" x1="622" y1="170" x2="555" y2="251" />
    <line class="cable" x1="622" y1="185" x2="520" y2="250" />
  </g>

  <!-- 2. Sweeping Bridge Deck Curve (Arched Crescent) -->
  <path class="bridge-deck" d="M 175,280 Q 500,220 825,280 Q 500,234 175,280 Z" />

  <!-- 3. Twin H-Frame Structural Pylons (Drawn on top with protective white mask borders) -->
  <g>
    <!-- Left Pylon Path -->
    <path class="pylon" d="M 361,140 L 369,140 L 368.5,241 L 373.5,241 L 373,140 L 381,140 L 386,270 L 374,270 L 373.8,251 L 368.2,251 L 368,270 L 356,270 Z" />
    
    <!-- Right Pylon Path (Perfect mathematical mirror of Left Pylon) -->
    <path class="pylon" d="M 639,140 L 631,140 L 631.5,241 L 626.5,241 L 627,140 L 619,140 L 614,270 L 626,270 L 626.2,251 L 631.8,251 L 632,270 L 644,270 Z" />
  </g>

  <!-- 4. Typography Section -->
  <g>
    <!-- Main Title -->
    <text x="500" y="370" class="main-title">EAST AFRICA BRIDGE</text>
    
    <!-- Gold Flanking Lines for "GROUP" -->
    <line x1="180" y1="432" x2="415" y2="432" stroke="#c59b27" stroke-width="1.8" />
    <line x1="585" y1="432" x2="820" y2="432" stroke="#c59b27" stroke-width="1.8" />
    
    <!-- Group Text -->
    <text x="507" y="441" class="group-title">GROUP</text>
    
    <!-- Tagline with perfectly aligned Gold Bullets -->
    <text x="500" y="495" class="tagline">
      PROCUREMENT <tspan class="bullet">&#8226;</tspan> SOURCING <tspan class="bullet">&#8226;</tspan> MARKET ACCESS
    </text>
  </g>
</svg>